<?xml version="1.0" ?><!-- Uploaded to: SVG Repo, www.svgrepo.com, Generator: SVG Repo Mixer Tools -->
<svg width="800px" height="800px" viewBox="0 0 64 64" data-name="Layer 1" id="Layer_1" xmlns="http://www.w3.org/2000/svg"><defs><style>
      .cls-1 {
        fill: #f76c5e;
      }

      .cls-2 {
        fill: #ffbc0a;
      }

      .cls-3 {
        fill: #a3cef1;
      }

      .cls-4 {
        fill: #6096ba;
      }

      .cls-5 {
        fill: #274c77;
      }
    </style></defs><path class="cls-5" d="M24,47h-2c-1.1,0-2,.9-2,2v10h24v-10c0-1.1-.9-2-2-2h-2"/><path class="cls-4" d="M50,29l-2,6-2-6V7c0-1.1,.9-2,2-2h0c1.1,0,2,.9,2,2V29Z"/><path class="cls-1" d="M50,9h-4v-2c0-1.1,.9-2,2-2,.55,0,1.05,.22,1.41,.59,.37,.36,.59,.86,.59,1.41v2Z"/><polygon class="cls-1" points="50 29 46 29 48 35 50 29"/><path class="cls-5" d="M42,33l-2,6-2-6V11c0-1.1,.9-2,2-2h0c1.1,0,2,.9,2,2v22Z"/><path class="cls-1" d="M42,13h-4v-2c0-1.1,.9-2,2-2,.55,0,1.05,.22,1.41,.59,.37,.36,.59,.86,.59,1.41v2Z"/><polygon class="cls-1" points="42 33 38 33 40 39 42 33"/><path class="cls-2" d="M34,37l-2,6-2-6V15c0-1.1,.9-2,2-2h0c1.1,0,2,.9,2,2v22Z"/><path class="cls-1" d="M34,17h-4v-2c0-1.1,.9-2,2-2,.55,0,1.05,.22,1.41,.59,.37,.36,.59,.86,.59,1.41v2Z"/><polygon class="cls-1" points="34 37 30 37 32 43 34 37"/><path class="cls-5" d="M26,33l-2,6-2-6V11c0-1.1,.9-2,2-2h0c1.1,0,2,.9,2,2v22Z"/><path class="cls-1" d="M26,13h-4v-2c0-1.1,.9-2,2-2,.55,0,1.05,.22,1.41,.59,.37,.36,.59,.86,.59,1.41v2Z"/><polygon class="cls-1" points="26 33 22 33 24 39 26 33"/><path class="cls-4" d="M18,29l-2,6-2-6V7c0-1.1,.9-2,2-2h0c1.1,0,2,.9,2,2V29Z"/><path class="cls-1" d="M18,9h-4v-2c0-1.1,.9-2,2-2,.55,0,1.05,.22,1.41,.59,.37,.36,.59,.86,.59,1.41v2Z"/><polygon class="cls-1" points="18 29 14 29 16 35 18 29"/><path class="cls-3" d="M40,47v12l-2-3c-.48-.72-1.24-1.07-2-1.07s-1.52,.35-2,1.07c-.26,.39-.61,.68-1,.85-.31,.15-.66,.22-1,.22s-.69-.07-1-.22c-.39-.17-.74-.46-1-.85-.95-1.43-3.05-1.43-4,0l-2,3v-12l2-3c.48-.72,1.24-1.07,2-1.07s1.52,.35,2,1.07c.26,.39,.61,.68,1,.85,.63,.3,1.37,.3,2,0,.39-.17,.74-.46,1-.85,.95-1.43,3.05-1.43,4,0l2,3Z"/><path class="cls-4" d="M33,44.85v12c-.31,.15-.66,.22-1,.22s-.69-.07-1-.22v-12c.63,.3,1.37,.3,2,0Z"/></svg>